<svg xmlns="http://www.w3.org/2000/svg" viewBox="0 0 98 96" role="img" aria-labelledby="title">
  <title id="title">GitHub logo</title>
  <path fill="#ffffff" fill-rule="evenodd" clip-rule="evenodd" d="M49 0C21.9 0 0 22 0 49.2c0 21.7 14 40.1 33.4 46.6 2.4.4 3.3-1.1 3.3-2.4 0-1.2 0-4.2-.1-8.3-13.6 3-16.5-6.6-16.5-6.6-2.2-5.7-5.4-7.2-5.4-7.2-4.4-3 .3-3 .3-3 4.9.3 7.5 5.1 7.5 5.1 4.4 7.5 11.5 5.3 14.3 4.1.4-3.2 1.7-5.3 3.1-6.6-10.8-1.2-22.2-5.4-22.2-24.2 0-5.3 1.9-9.7 5-13.1-.5-1.2-2.2-6.2.5-12.9 0 0 4.1-1.3 13.5 5 3.9-1.1 8.1-1.6 12.3-1.6s8.4.5 12.3 1.6c9.4-6.3 13.5-5 13.5-5 2.7 6.7 1 11.7.5 12.9 3.1 3.4 5 7.8 5 13.1 0 18.8-11.4 23-22.3 24.2 1.8 1.5 3.3 4.5 3.3 9.1 0 6.6-.1 11.9-.1 13.5 0 1.3.9 2.8 3.4 2.4C84 89.3 98 70.9 98 49.2 98 22 76.1 0 49 0z"/>
</svg>
