<svg xmlns="http://www.w3.org/2000/svg" viewBox="0 0 256 256" role="img" aria-labelledby="title">
  <title id="title">SwiftUI logo</title>
  <defs>
    <linearGradient id="bg" x1="32" y1="224" x2="224" y2="32" gradientUnits="userSpaceOnUse">
      <stop stop-color="#0a63ff"/>
      <stop offset="0.52" stop-color="#26a8ff"/>
      <stop offset="1" stop-color="#7ad7ff"/>
    </linearGradient>
  </defs>
  <rect x="20" y="20" width="216" height="216" rx="48" fill="url(#bg)"/>
  <path d="M64 142c42 34 88 33 128-2-24 4-52 1-82-9-23-8-40-19-55-33 21 9 46 16 70 17-30-19-50-40-67-67 41 34 76 52 125 68-8-31-24-58-47-82 35 22 58 53 68 91 6 25 0 50-17 68-31 31-82 31-123-51z" fill="#fff" opacity="0.96"/>
  <path d="M78 171c31 26 71 31 102 11 14-9 23-22 27-37 4 27-5 52-25 68-29 22-73 16-104-42z" fill="#dff6ff" opacity="0.9"/>
</svg>
